<?xml version="1.0" encoding="UTF-8" standalone="no"?><!DOCTYPE svg PUBLIC "-//W3C//DTD SVG 1.1//EN" "http://www.w3.org/Graphics/SVG/1.1/DTD/svg11.dtd"><svg width="100%" height="100%" viewBox="0 0 35 35" version="1.1" xmlns="http://www.w3.org/2000/svg" xmlns:xlink="http://www.w3.org/1999/xlink" xml:space="preserve" xmlns:serif="http://www.serif.com/" style="fill-rule:evenodd;clip-rule:evenodd;stroke-linejoin:round;stroke-miterlimit:2;"><rect x="-236.559" y="-239.538" width="522.745" height="591.044"/><g><path d="M17.322,24.319c-0.778,0.01 -0.772,-0.03 -1.536,-0.165c-1.478,-0.26 -2.909,1.191 -6.367,0.883c-1.051,-0.094 -1.061,-0.243 -1.011,-0.312c0.176,-0.242 0.364,-0.044 3.861,-3.541c3.176,-3.177 7.111,-3.865 8.995,-10.29c0.112,-0.38 0.203,-0.63 0.943,-1.093c0.302,-0.189 1.056,-0.492 1.391,-0.205c0.14,0.12 1.097,1.271 2.352,2.269c0.154,0.122 0.329,0.232 0.114,0.298c-1.132,0.346 -1.918,0.151 -1.652,0.492c1.222,1.563 1.366,1.534 1.739,3.485c0.016,0.083 0.319,3.096 -2.449,5.647c-0.989,0.911 -1.866,1.346 -1.51,1.456c0.134,0.041 0.129,0.052 1.662,0.545c0.014,0.005 0.663,0.15 -0.07,0.457c-1.14,0.477 -4.604,0.939 -3.759,-0.053c0.333,-0.392 0.894,-0.956 0.367,-0.774c-0.865,0.297 -1.393,0.73 -3.068,0.901Z" style="fill:#fefefe;"/></g></svg>